<?xml version="1.0" encoding="utf-8"?>
<!-- Generator: Adobe Illustrator 25.0.1, SVG Export Plug-In . SVG Version: 6.00 Build 0)  -->
<svg version="1.1" id="Layer_1" xmlns="http://www.w3.org/2000/svg" xmlns:xlink="http://www.w3.org/1999/xlink" x="0px" y="0px"
	 viewBox="0 0 711 711" style="enable-background:new 0 0 711 711;" xml:space="preserve">
<style type="text/css">
	.st0{fill-rule:evenodd;clip-rule:evenodd;}
</style>
<g>
	<path class="st0" d="M310,568.9c16-56,24-131,14-174c-36-93-150-79-183-8c-14,56-55,70-97,73c45-13,69-34,81-80c3-10,13-26,27-37
		c-49-6-72-28-82-58c30,35,63,50,100,44c29-18,61-29,99-18c-20-40-52-46-93-61c-31-13-52-32-58-62c25,39,61,54,102,58
		c20,6,36,17,45,31c-3-19-1-48,4-81c-15-45-38-69-70-74c30-1,59,8,79,61c11-18,25-34,43-47c26-17,41-44,38-90c19,43,3,75-30,103
		c-63,66-60,130,7,183c9-60,34-99,81-109c27-38,37-72,14-105c27,17,28,55,7,101c18,0,41-1,72,1c34,3,59-6,84-31
		c-31,100-247-39-231,175c53-63,112-75,176-32c41,0,76-11,97-50c-7,32-31,54-79,63c49,49,23,94,110,113c-36,0-71-9-102-74
		c-46-68-147-79-189,17c-11,32-1,114,21,168H310z M43,459.9c-16,20-34,8-43,1c8-12,29-13,40-5c-3,2-8,4-15,5L43,459.9z M141,404.9
		c22,13,7,25,7,42c-13-6-17-26-11-39c3,3,5,8,7,15L141,404.9z M77,462.9c0,25-17,19-33,28c-1-14,14-28,28-30c-1,4-4,9-9,14L77,462.9
		z M114,442.9c15,21-4,26-12,42c-9-11-4-31,7-40c1,3,2,9,1,16L114,442.9z M83,433.9c-15,21-26,6-44,4c8-13,29-15,40-8c-3,3-7,5-15,6
		L83,433.9z M108,402.9c-8,25-23,13-41,16c4-14,23-22,36-19c-2,3-6,7-12,11L108,402.9z M138,351.9c-16,20-26,4-43,1c8-12,29-13,40-5
		c-3,2-8,4-15,5L138,351.9z M69,308.9c-3-25-20-17-36-24c0,14,17,26,30,26c-1-3-4-8-9-13L69,308.9z M94,329.9c-16,20-26,4-44,1
		c8-12,29-13,41-6c-3,3-8,5-16,6L94,329.9z M63,281.9c-22-13-13-33-7-43c13,6,17,27,11,39c-3-2-5-7-8-14L63,281.9z M99,306.9
		c-23-13-8-25-8-43c13,7,17,27,12,39c-3-2-6-7-8-14L99,306.9z M120,319.9c22-13,7-25,7-43c-13,7-17,27-11,39c3-2,5-7,7-14L120,319.9
		z M116,216.9c-25-4-16-20-22-37c14,1,25,19,24,32c-3-1-7-4-12-10L116,216.9z M120,183.9c19-17,6-34-2-43c-12,9-11,30-3,41
		c2-3,4-9,5-16V183.9z M149,214.9c16-20-2-26-9-42c-10,10-6,31,4,40c1-3,2-8,2-16L149,214.9z M180,234.9c11-23-8-25-18-39
		c-7,12,1,31,13,38c1-3,0-9-2-16L180,234.9z M148,245.9c-22,14-26-5-41-13c11-9,31-3,40,8c-4,1-9,1-17,0L148,245.9z M192,259.9
		c-11,29-28,14-49,17c5-17,28-26,44-21c-2,4-7,8-15,12L192,259.9z M195,122.9c-12,23-25,9-43,9c6-13,26-18,39-13c-3,3-7,6-14,8
		L195,122.9z M227,141.9c-11,23-24,9-42,9c6-13,26-18,39-13c-3,3-7,6-14,8L227,141.9z M250,166.9c-12,23-25,9-43,10
		c6-14,26-19,39-14c-3,3-7,6-14,9L250,166.9z M226,116.9c2-25-17-20-31-30c-3,14,12,29,25,31c0-3-3-8-7-14L226,116.9z M252,132.9
		c15-21-3-26-11-42c-9,11-5,31,6,40c1-3,2-9,1-16L252,132.9z M277,163.9c18-18,1-26-5-43c-11,10-9,31,0,41c2-3,4-9,4-16L277,163.9z
		 M378,77.9c23-13,9-25,9-43c-13,6-18,26-12,39c2-3,5-7,8-14L378,77.9z M363,41.9c-24-11-16-32-11-42c13,5,19,25,14,38
		c-3-2-6-7-9-14L363,41.9z M349,87.9c-24-9-12-24-14-41c14,4,21,23,18,36c-4-2-7-6-10-12L349,87.9z M323,121.9c-19-17-3-26,1-43
		c11,8,12,29,4,40c-3-3-4-8-5-15V121.9z M330,156.9c22,13,25-6,40-15c-11-8-31-1-39,10c4,1,9,1,16-1L330,156.9z M364,122.9
		c25,3,21-15,31-30c-14-2-29,11-32,25c4-1,9-3,15-7L364,122.9z M433,109.9c-26,2-21-16-31-31c14-2,29,12,32,25c-4,0-9-2-15-7
		L433,109.9z M436,151.9c-26,2-21-16-31-31c14-2,29,12,32,25c-4,0-9-2-15-7L436,151.9z M433,186.9c-25,4-21-15-31-29
		c14-3,29,11,32,24c-4,0-8-2-14-7L433,186.9z M452,128.9c22-12,8-25,8-42c-13,5-17,26-12,38c3-2,6-7,8-14L452,128.9z M457,157.9
		c25,1,20-17,29-32c-15-2-29,13-31,27c4-1,9-3,14-8L457,157.9z M449,204.9c25,4,22-14,34-28c-14-4-31,9-34,22c3,0,9-2,15-6
		L449,204.9z M668,460.9c16,21,34,8,43,1c-8-12-29-13-40-5c3,2,8,4,15,5L668,460.9z M565,399.9c22,13,8,25,7,43c-13-6-17-27-11-39
		c3,2,6,7,8,14L565,399.9z M631,469.9c23-12,26,7,40,17c-12,8-32,0-39-12c4-1,9-1,16,1L631,469.9z M587,439.9c26,0,20,18,28,33
		c-14,2-28-14-29-27c4,0,8,3,14,8L587,439.9z M629,435.9c14,20,25,5,43,3c-8-13-28-15-40-8c3,3,8,5,15,7L629,435.9z M597,403.9
		c8,25,23,13,40,16c-3-14-22-22-35-19c2,3,6,7,12,11L597,403.9z M566,350.9c16,20,26,4,43,1c-8-12-29-13-40-6c3,3,8,5,15,6
		L566,350.9z M635,307.9c3-25,20-18,36-25c0,15-17,27-30,27c1-4,4-8,9-13L635,307.9z M610,327.9c16,21,26,5,44,1c-8-12-29-13-41-5
		c3,2,8,4,16,6L610,327.9z M641,280.9c22-13,13-33,7-43c-13,6-17,27-11,39c3-3,5-7,8-14L641,280.9z M608,309.9c22-13,8-25,7-43
		c-13,6-17,27-11,39c3-3,6-7,8-14L608,309.9z M584,319.9c-19-17-3-26,1-43c12,8,12,29,4,40c-3-3-4-8-5-15V319.9z M584,218.9
		c24,10,25-9,38-21c-13-6-31,3-37,15c3,1,9,0,16-2L584,218.9z M599,186.9c-7-24,13-33,24-36c6,14-6,31-18,36c-1-4,1-9,4-15
		L599,186.9z M557,205.9c-4-26,15-22,29-32c3,14-11,30-24,33c0-4,2-9,6-15L557,205.9z M511,215.9c3-26,20-18,36-24c0,14-17,26-31,26
		c1-4,4-8,10-13L511,215.9z M543,234.9c12,23,25,9,42,10c-5-13-25-19-38-14c3,3,7,6,14,9L543,234.9z M488,237.9c8,29,27,16,47,21
		c-3-17-26-28-42-25c2,4,7,9,15,13L488,237.9z"/>
</g>
</svg>
